#define 1716220588734_width 32
#define 1716220588734_height 15
static char 1716220588734_bits[] = {
  0x00, 0x00, 0x00, 0x00, 0x00, 0x82, 0x10, 0x08, 0xFC, 0xFF, 0x9F, 0x3F, 
  0x9C, 0xFF, 0x07, 0x3F, 0x0E, 0xFF, 0x07, 0x7F, 0x0E, 0xEF, 0x07, 0x7F, 
  0x0C, 0xD5, 0x07, 0xFF, 0x02, 0x89, 0x07, 0xFF, 0x0A, 0xD0, 0x07, 0xFB, 
  0x08, 0xCA, 0x07, 0x7F, 0x0A, 0xC9, 0x06, 0x7F, 0xBC, 0xFF, 0x83, 0x3F, 
  0xF8, 0xFF, 0xFF, 0x3F, 0x00, 0x22, 0x02, 0x02, 0x00, 0x00, 0x00, 0x00, 
  };
