#define e7256f0afec4478bcd2f5bb5a980289er9EBJcsXN4ASKFPn_width 12
#define e7256f0afec4478bcd2f5bb5a980289er9EBJcsXN4ASKFPn_height 24
static char e7256f0afec4478bcd2f5bb5a980289er9EBJcsXN4ASKFPn_bits[] = {
  0x00, 0x00, 0x00, 0x00, 0x00, 0x00, 0x00, 0x00, 0x00, 0x00, 0x01, 0x08, 
  0x01, 0x08, 0x01, 0x08, 0xF8, 0x01, 0xFC, 0x03, 0xFC, 0x03, 0x9E, 0x03, 
  0x00, 0x00, 0x00, 0x00, 0x00, 0x00, 0x00, 0x00, 0x00, 0x00, 0x01, 0x08, 
  0x01, 0x08, 0x9D, 0x0B, 0xFC, 0x01, 0xF0, 0x00, 0x00, 0x00, 0x00, 0x00, 
  };
